<svg width="40" height="40" viewBox="0 0 40 40" fill="none" xmlns="http://www.w3.org/2000/svg">
<path d="M29.8192 14.4532C29.3659 14.9036 28.7529 15.1564 28.1139 15.1564C27.4749 15.1564 26.8618 14.9036 26.4085 14.4532L24.4058 12.4505C23.955 11.9973 23.702 11.384 23.702 10.7448C23.702 10.1055 23.955 9.49229 24.4058 9.03906L28.9388 4.50378C28.9478 4.49516 28.9545 4.48444 28.9583 4.4726C28.9621 4.46075 28.963 4.44815 28.9607 4.43591C28.9585 4.42366 28.9532 4.41217 28.9455 4.40244C28.9377 4.39272 28.9277 4.38506 28.9162 4.38017C25.9902 3.12594 22.1966 3.76511 19.7876 6.15674C17.4827 8.44436 17.3515 11.8852 18.1957 14.8881C18.3157 15.315 18.3154 15.7666 18.1949 16.1933C18.0744 16.62 17.8383 17.0051 17.5128 17.3061L4.95545 28.7743C4.58496 29.1028 4.28558 29.5036 4.0757 29.9521C3.86582 30.4005 3.74989 30.8872 3.73503 31.3821C3.72018 31.877 3.80671 32.3698 3.98931 32.83C4.1719 33.2903 4.44671 33.7083 4.79683 34.0584C5.14695 34.4085 5.56498 34.6833 6.02523 34.8659C6.48547 35.0485 6.97821 35.1351 7.47313 35.1202C7.96805 35.1054 8.4547 34.9894 8.90316 34.7795C9.35163 34.5697 9.75242 34.2703 10.0809 33.8998L21.678 21.3123C21.9752 20.9922 22.3539 20.7591 22.7735 20.6379C23.1931 20.5167 23.6378 20.5119 24.0598 20.6241C27.0401 21.4223 30.432 21.2723 32.7068 19.0269C35.1557 16.6149 35.6841 12.3518 34.4969 9.9119C34.4916 9.90123 34.4838 9.89199 34.4742 9.88493C34.4646 9.87787 34.4534 9.87319 34.4416 9.87128C34.4299 9.86936 34.4178 9.87027 34.4065 9.87393C34.3951 9.87758 34.3848 9.88388 34.3763 9.8923L29.8192 14.4532Z" stroke="#6366F1" stroke-width="1.5" stroke-miterlimit="10" stroke-linecap="round"/>
<path d="M7.5 33.75C8.19036 33.75 8.75 33.1904 8.75 32.5C8.75 31.8096 8.19036 31.25 7.5 31.25C6.80964 31.25 6.25 31.8096 6.25 32.5C6.25 33.1904 6.80964 33.75 7.5 33.75Z" fill="#6366F1"/>
</svg>
