<svg width="40" height="40" viewBox="0 0 40 40" fill="none" xmlns="http://www.w3.org/2000/svg">
<path d="M22 20C23.0609 20 24.0783 20.4214 24.8284 21.1716C25.5786 21.9217 26 22.9391 26 24V27C26 31.108 21.824 34 15 34C8.176 34 4 31.108 4 27V24C4 22.9391 4.42143 21.9217 5.17157 21.1716C5.92172 20.4214 6.93913 20 8 20H22ZM22 22H8C7.46957 22 6.96086 22.2107 6.58579 22.5858C6.21071 22.9609 6 23.4696 6 24V27C6 29.814 9.158 32 15 32C20.842 32 24 29.814 24 27V24C24 23.4696 23.7893 22.9609 23.4142 22.5858C23.0391 22.2107 22.5304 22 22 22ZM32 20C33.0609 20 34.0783 20.4214 34.8284 21.1716C35.5786 21.9217 36 22.9391 36 24V25C36 29.178 32.864 32 27 32C26.718 32 26.44 31.994 26.172 31.98C26.5828 31.5041 26.9334 30.9795 27.216 30.418L27.41 29.992H27.488C31.952 29.862 34 27.92 34 25V24C34 23.4696 33.7893 22.9609 33.4142 22.5858C33.0391 22.2107 32.5304 22 32 22H27.658C27.3963 21.2622 26.9927 20.5828 26.47 20H32ZM15 4C15.9193 4 16.8295 4.18106 17.6788 4.53284C18.5281 4.88463 19.2997 5.40024 19.9497 6.05025C20.5998 6.70026 21.1154 7.47194 21.4672 8.32122C21.8189 9.17049 22 10.0807 22 11C22 11.9193 21.8189 12.8295 21.4672 13.6788C21.1154 14.5281 20.5998 15.2997 19.9497 15.9497C19.2997 16.5998 18.5281 17.1154 17.6788 17.4672C16.8295 17.8189 15.9193 18 15 18C13.1435 18 11.363 17.2625 10.0503 15.9497C8.7375 14.637 8 12.8565 8 11C8 9.14348 8.7375 7.36301 10.0503 6.05025C11.363 4.7375 13.1435 4 15 4V4ZM29 8C30.3261 8 31.5979 8.52678 32.5355 9.46447C33.4732 10.4021 34 11.6739 34 13C34 14.3261 33.4732 15.5979 32.5355 16.5355C31.5979 17.4732 30.3261 18 29 18C27.6739 18 26.4021 17.4732 25.4645 16.5355C24.5268 15.5979 24 14.3261 24 13C24 11.6739 24.5268 10.4021 25.4645 9.46447C26.4021 8.52678 27.6739 8 29 8ZM15 6C13.6739 6 12.4021 6.52678 11.4645 7.46447C10.5268 8.40215 10 9.67392 10 11C10 12.3261 10.5268 13.5979 11.4645 14.5355C12.4021 15.4732 13.6739 16 15 16C16.3261 16 17.5979 15.4732 18.5355 14.5355C19.4732 13.5979 20 12.3261 20 11C20 9.67392 19.4732 8.40215 18.5355 7.46447C17.5979 6.52678 16.3261 6 15 6ZM29 10C28.2044 10 27.4413 10.3161 26.8787 10.8787C26.3161 11.4413 26 12.2044 26 13C26 13.7956 26.3161 14.5587 26.8787 15.1213C27.4413 15.6839 28.2044 16 29 16C29.7956 16 30.5587 15.6839 31.1213 15.1213C31.6839 14.5587 32 13.7956 32 13C32 12.2044 31.6839 11.4413 31.1213 10.8787C30.5587 10.3161 29.7956 10 29 10Z" fill="#6366F1"/>
</svg>
