<svg width="1000" height="667" viewBox="0 0 1000 667" fill="none" xmlns="http://www.w3.org/2000/svg">
<path d="M747.077 468.6C696.61 428.413 776.427 412.86 802.01 397.047C880.76 348.38 848.334 222.547 728.334 222.547C582.754 222.547 555.774 167.06 458.21 135.117C346.677 98.6032 283.137 109.783 283.137 221.917C283.137 281.083 203.057 231.253 201.124 329.057C195 638.38 837.484 540.593 747.077 468.6Z" fill="url(#paint0_linear_268_2366)"/>
<path d="M748.74 479.344L761.277 506.357C762.037 507.99 764.03 508.62 765.59 507.72L799.844 487.943C802.35 486.497 801.64 482.704 798.78 482.264L751.987 475.023C749.57 474.65 747.71 477.124 748.74 479.344Z" fill="#E8ECF7"/>
<path d="M559.417 164.217C549.18 158.307 532.58 158.307 522.344 164.217C512.107 170.127 512.107 179.71 522.344 185.62C532.58 191.53 549.18 191.53 559.417 185.62C569.657 179.713 569.657 170.13 559.417 164.217ZM531.094 180.573C525.687 177.45 525.687 172.39 531.094 169.27C536.5 166.147 545.263 166.147 550.67 169.27C556.077 172.393 556.077 177.453 550.67 180.573C545.263 183.693 536.5 183.693 531.094 180.573Z" fill="#E8ECF7"/>
<path d="M808.244 288.107C810.051 289.147 812.974 289.147 814.777 288.107C816.581 287.067 816.581 285.377 814.777 284.333C812.971 283.293 810.047 283.293 808.244 284.333C806.441 285.377 806.441 287.067 808.244 288.107Z" fill="#E8ECF7"/>
<path d="M824.23 297.337C826.034 298.377 828.96 298.377 830.764 297.337C832.57 296.297 832.57 294.607 830.764 293.563C828.96 292.523 826.034 292.523 824.23 293.563C822.427 294.603 822.427 296.297 824.23 297.337Z" fill="#E8ECF7"/>
<path d="M840.221 306.567C842.025 307.607 844.951 307.607 846.755 306.567C848.558 305.527 848.558 303.837 846.755 302.793C844.951 301.753 842.025 301.753 840.221 302.793C838.415 303.837 838.415 305.527 840.221 306.567Z" fill="#E8ECF7"/>
<path d="M859.473 316.576C862.025 316.576 864.094 315.383 864.094 313.91C864.094 312.437 862.025 311.243 859.473 311.243C856.922 311.243 854.854 312.437 854.854 313.91C854.854 315.383 856.922 316.576 859.473 316.576Z" fill="#E8ECF7"/>
<path d="M792.257 297.337C794.06 298.377 796.987 298.377 798.79 297.337C800.593 296.297 800.593 294.607 798.79 293.563C796.987 292.523 794.06 292.523 792.257 293.563C790.453 294.603 790.453 296.297 792.257 297.337Z" fill="#E8ECF7"/>
<path d="M808.244 306.566C810.051 307.606 812.974 307.606 814.777 306.566C816.581 305.526 816.581 303.836 814.777 302.793C812.974 301.75 810.047 301.753 808.244 302.793C806.441 303.836 806.441 305.526 808.244 306.566Z" fill="#E8ECF7"/>
<path d="M824.23 315.796C826.037 316.836 828.96 316.836 830.764 315.796C832.567 314.756 832.567 313.066 830.764 312.023C828.96 310.983 826.034 310.983 824.23 312.023C822.427 313.066 822.427 314.756 824.23 315.796Z" fill="#E8ECF7"/>
<path d="M846.754 321.257C844.951 320.217 842.024 320.214 840.221 321.257C838.417 322.297 838.417 323.987 840.221 325.027C842.024 326.067 844.951 326.067 846.754 325.027C848.557 323.987 848.557 322.3 846.754 321.257Z" fill="#E8ECF7"/>
<path d="M776.268 306.567C778.074 307.607 780.997 307.607 782.801 306.567C784.604 305.527 784.604 303.837 782.801 302.793C780.994 301.753 778.071 301.753 776.268 302.793C774.464 303.837 774.464 305.527 776.268 306.567Z" fill="#E8ECF7"/>
<path d="M792.257 315.796C794.06 316.836 796.987 316.836 798.79 315.796C800.593 314.756 800.593 313.066 798.79 312.023C796.987 310.983 794.06 310.983 792.257 312.023C790.453 313.063 790.453 314.756 792.257 315.796Z" fill="#E8ECF7"/>
<path d="M808.244 325.03C810.047 326.07 812.974 326.07 814.777 325.03C816.581 323.99 816.581 322.3 814.777 321.26C812.974 320.217 810.047 320.217 808.244 321.26C806.441 322.3 806.441 323.987 808.244 325.03Z" fill="#E8ECF7"/>
<path d="M830.767 330.487C828.963 329.447 826.037 329.447 824.233 330.487C822.43 331.527 822.43 333.217 824.233 334.26C826.04 335.3 828.963 335.3 830.767 334.26C832.57 333.217 832.57 331.527 830.767 330.487Z" fill="#E8ECF7"/>
<path d="M763.547 316.576C766.098 316.576 768.167 315.383 768.167 313.91C768.167 312.437 766.098 311.243 763.547 311.243C760.995 311.243 758.927 312.437 758.927 313.91C758.927 315.383 760.995 316.576 763.547 316.576Z" fill="#E8ECF7"/>
<path d="M776.271 325.03C778.074 326.07 781.001 326.07 782.804 325.03C784.608 323.99 784.608 322.3 782.804 321.257C781.001 320.217 778.074 320.217 776.271 321.257C774.464 322.3 774.464 323.987 776.271 325.03Z" fill="#E8ECF7"/>
<path d="M792.257 334.26C794.06 335.3 796.987 335.3 798.79 334.26C800.593 333.217 800.593 331.53 798.79 330.487C796.987 329.447 794.06 329.447 792.257 330.487C790.453 331.527 790.453 333.217 792.257 334.26Z" fill="#E8ECF7"/>
<path d="M814.778 339.717C812.974 338.677 810.047 338.677 808.244 339.717C806.441 340.757 806.441 342.45 808.244 343.49C810.047 344.53 812.974 344.53 814.778 343.49C816.581 342.45 816.584 340.76 814.778 339.717Z" fill="#E8ECF7"/>
<path d="M750.827 321.254C749.021 320.214 746.097 320.214 744.294 321.254C742.491 322.297 742.491 323.987 744.294 325.027C746.101 326.067 749.024 326.067 750.827 325.027C752.634 323.987 752.634 322.3 750.827 321.254Z" fill="#E8ECF7"/>
<path d="M766.814 330.487C765.011 329.447 762.085 329.447 760.281 330.487C758.478 331.527 758.478 333.217 760.281 334.26C762.085 335.3 765.011 335.3 766.814 334.26C768.621 333.217 768.621 331.527 766.814 330.487Z" fill="#E8ECF7"/>
<path d="M782.804 339.717C781.001 338.677 778.074 338.677 776.271 339.717C774.464 340.757 774.464 342.45 776.271 343.49C778.074 344.53 781.001 344.53 782.804 343.49C784.608 342.45 784.608 340.76 782.804 339.717Z" fill="#E8ECF7"/>
<path d="M798.79 348.947C796.987 347.907 794.06 347.907 792.257 348.947C790.453 349.987 790.453 351.677 792.257 352.72C794.063 353.76 796.987 353.76 798.79 352.72C800.593 351.677 800.593 349.99 798.79 348.947Z" fill="#E8ECF7"/>
<path d="M266.941 306.967C265.134 305.927 262.211 305.927 260.407 306.967C258.604 308.01 258.604 309.697 260.407 310.74C262.211 311.78 265.137 311.78 266.941 310.74C268.744 309.697 268.744 308.007 266.941 306.967Z" fill="white"/>
<path d="M250.954 316.197C249.151 315.157 246.224 315.157 244.421 316.197C242.618 317.237 242.618 318.926 244.421 319.97C246.224 321.01 249.151 321.01 250.954 319.97C252.757 318.926 252.757 317.237 250.954 316.197Z" fill="white"/>
<path d="M234.967 325.426C233.164 324.386 230.237 324.386 228.434 325.426C226.63 326.466 226.63 328.156 228.434 329.2C230.237 330.24 233.164 330.24 234.967 329.2C236.77 328.156 236.77 326.466 234.967 325.426Z" fill="white"/>
<path d="M218.981 334.656C217.174 333.616 214.251 333.616 212.447 334.656C210.644 335.7 210.644 337.386 212.447 338.43C214.254 339.47 217.177 339.47 218.981 338.43C220.784 337.386 220.784 335.696 218.981 334.656Z" fill="white"/>
<path d="M202.99 343.886C201.187 342.846 198.26 342.846 196.457 343.886C194.654 344.926 194.654 346.616 196.457 347.66C198.264 348.7 201.187 348.7 202.99 347.66C204.794 346.616 204.794 344.93 202.99 343.886Z" fill="white"/>
<path d="M466.27 474.917L480.637 483.21C482.827 484.473 482.554 486.683 480.024 488.143L466.887 495.73C464.357 497.19 460.534 497.346 458.344 496.083L443.977 487.79C441.787 486.526 442.06 484.316 444.59 482.856L457.727 475.27C460.254 473.81 464.08 473.653 466.27 474.917Z" fill="#E8ECF7"/>
<path d="M504.866 84.9536L458.18 111.904V222.884H504.866V84.9536Z" fill="url(#paint1_linear_268_2366)"/>
<path d="M458.179 111.903L411.496 84.9533L458.179 58L504.866 84.9533L458.179 111.903Z" fill="#F1F3F9"/>
<path d="M458.179 111.904L411.496 84.9536V222.884H458.179V111.904Z" fill="url(#paint2_linear_268_2366)"/>
<path d="M342.05 301.45H298.043L316.293 312.313L298.043 322.853H342.05L360.576 312.156L342.05 301.45Z" fill="url(#paint3_linear_268_2366)"/>
<path d="M783.407 256.47H706.743L754.667 287.94L706.743 318.473H783.407L832.063 287.48L783.407 256.47Z" fill="url(#paint4_linear_268_2366)"/>
<path d="M366.622 333L427.612 297.776V188.386L366.622 223.6V333Z" fill="#B9BEE4"/>
<path d="M366.623 333L305.626 297.776V188.386L366.623 223.6V333Z" fill="#CCD1F6"/>
<path d="M366.623 223.6L305.626 188.387L366.623 153.187L427.613 188.387L366.623 223.6Z" fill="white"/>
<path d="M706.743 318.473L753.353 291.553V207.953L706.743 234.863V318.473Z" fill="#B9BEE4"/>
<path d="M706.743 318.473L660.123 291.553V207.953L706.743 234.863V318.473Z" fill="#CCD1F6"/>
<path d="M706.743 234.863L660.123 207.953L706.743 181.053L753.353 207.953L706.743 234.863Z" fill="#F4F4F9"/>
<path d="M298.043 322.853L316.293 312.313V282.153L298.043 292.69V322.853Z" fill="#B9BEE4"/>
<path d="M298.043 322.853L279.793 312.313V282.153L298.043 292.69V322.853Z" fill="#CCD1F6"/>
<path d="M298.043 292.69L279.793 282.153L298.043 271.62L316.293 282.153L298.043 292.69Z" fill="white"/>
<path d="M793.463 289.42H762.453L781.84 300.957L762.453 312.153H793.463L813.146 300.787L793.463 289.42Z" fill="url(#paint5_linear_268_2366)"/>
<path d="M762.453 312.153L781.84 300.957V278.227L762.453 289.42V312.153Z" fill="#423EAF"/>
<path d="M762.453 312.153L743.066 300.957V278.227L762.453 289.42V312.153Z" fill="#5652CC"/>
<path d="M762.453 289.42L743.066 278.227L762.453 267.04L781.84 278.227L762.453 289.42Z" fill="#807DFB"/>
<path d="M336.696 372.27H321.783L331.107 377.82L321.783 383.203H336.696L346.163 377.737L336.696 372.27Z" fill="url(#paint6_linear_268_2366)"/>
<path d="M321.783 383.203L331.107 377.82V366.887L321.783 372.27V383.203Z" fill="#8415EF"/>
<path d="M321.783 383.203L312.46 377.82V366.887L321.783 372.27V383.203Z" fill="#B841FC"/>
<path d="M321.783 372.27L312.46 366.887L321.783 361.507L331.107 366.887L321.783 372.27Z" fill="#B80BFF"/>
<path d="M436.363 552.474H392.25L419.827 568.887L392.25 584.814H436.363L464.367 568.647L436.363 552.474Z" fill="url(#paint7_linear_268_2366)"/>
<path d="M392.25 584.813L419.827 568.887V536.553L392.25 552.473V584.813Z" fill="#BBC0E6"/>
<path d="M392.25 584.813L364.67 568.887V536.553L392.25 552.473V584.813Z" fill="#CED3F8"/>
<path d="M392.25 552.473L364.67 536.553L392.25 520.637L419.827 536.553L392.25 552.473Z" fill="white"/>
<path d="M556.273 603.046L549.056 598.88C549.033 598.866 549.033 598.85 549.056 598.84L550.426 598.05C550.449 598.036 550.476 598.036 550.499 598.05L557.716 602.216C557.739 602.23 557.736 602.246 557.716 602.26L556.346 603.05C556.323 603.06 556.296 603.06 556.273 603.046ZM541.839 594.713L534.623 590.546C534.599 590.533 534.599 590.516 534.623 590.506L535.993 589.716C536.016 589.703 536.043 589.703 536.066 589.716L543.283 593.883C543.306 593.896 543.303 593.913 543.283 593.926L541.913 594.716C541.889 594.726 541.863 594.726 541.839 594.713ZM527.406 586.38L520.189 582.213C520.166 582.2 520.166 582.183 520.189 582.173L521.559 581.383C521.583 581.37 521.609 581.37 521.633 581.383L528.849 585.55C528.873 585.563 528.869 585.58 528.849 585.593L527.479 586.383C527.456 586.393 527.429 586.393 527.406 586.38ZM512.973 578.046L505.756 573.88C505.733 573.866 505.733 573.85 505.756 573.84L507.126 573.05C507.149 573.036 507.176 573.036 507.199 573.05L514.416 577.216C514.439 577.23 514.436 577.246 514.416 577.26L513.046 578.05C513.023 578.06 512.993 578.06 512.973 578.046ZM498.539 569.713L491.323 565.546C491.299 565.533 491.299 565.516 491.323 565.506L492.693 564.716C492.716 564.703 492.743 564.703 492.766 564.716L499.983 568.883C500.006 568.896 500.003 568.913 499.983 568.926L498.613 569.716C498.589 569.726 498.559 569.726 498.539 569.713ZM490.513 561.38L489.143 560.586C489.129 560.576 489.129 560.553 489.143 560.546L496.359 556.38C496.383 556.366 496.416 556.37 496.433 556.38L497.803 557.173C497.823 557.186 497.826 557.203 497.803 557.213L490.586 561.38C490.573 561.39 490.536 561.393 490.513 561.38ZM504.946 553.046L503.576 552.253C503.563 552.243 503.563 552.22 503.576 552.213L510.793 548.046C510.816 548.033 510.849 548.036 510.866 548.046L512.236 548.84C512.256 548.853 512.259 548.87 512.236 548.88L505.019 553.046C505.006 553.056 504.969 553.06 504.946 553.046ZM519.379 544.716L518.009 543.923C517.996 543.913 517.996 543.89 518.009 543.883L525.226 539.716C525.249 539.703 525.283 539.706 525.299 539.716L526.669 540.51C526.689 540.523 526.693 540.54 526.669 540.55L519.453 544.716C519.439 544.723 519.403 544.726 519.379 544.716ZM533.816 536.383L532.446 535.59C532.433 535.58 532.433 535.556 532.446 535.55L539.663 531.383C539.686 531.37 539.719 531.373 539.736 531.383L541.106 532.176C541.126 532.19 541.129 532.206 541.106 532.216L533.889 536.383C533.873 536.39 533.836 536.393 533.816 536.383ZM548.249 528.05L546.879 527.256C546.866 527.246 546.866 527.223 546.879 527.216L554.096 523.05C554.119 523.036 554.153 523.04 554.169 523.05L555.539 523.843C555.559 523.856 555.563 523.873 555.539 523.883L548.323 528.05C548.306 528.056 548.269 528.06 548.249 528.05ZM562.683 519.716L561.313 518.923C561.299 518.913 561.299 518.89 561.313 518.883L568.529 514.716C568.553 514.703 568.586 514.706 568.603 514.716L569.973 515.51C569.993 515.523 569.996 515.54 569.973 515.55L562.756 519.716C562.739 519.723 562.703 519.726 562.683 519.716ZM577.116 511.383L575.746 510.59C575.733 510.58 575.733 510.556 575.746 510.55L582.963 506.383C582.986 506.37 583.019 506.373 583.036 506.383L584.406 507.176C584.426 507.19 584.43 507.206 584.406 507.216L577.189 511.383C577.173 511.39 577.136 511.393 577.116 511.383ZM591.549 503.05L590.179 502.256C590.166 502.246 590.166 502.223 590.179 502.216L597.396 498.05C597.419 498.036 597.453 498.04 597.469 498.05L598.839 498.843C598.859 498.856 598.863 498.873 598.839 498.883L591.623 503.05C591.606 503.056 591.569 503.06 591.549 503.05ZM605.983 494.716L604.613 493.923C604.6 493.913 604.6 493.89 604.613 493.883L611.829 489.716C611.853 489.703 611.886 489.706 611.903 489.716L613.273 490.51C613.293 490.523 613.296 490.54 613.273 490.55L606.056 494.716C606.039 494.723 606.003 494.726 605.983 494.716ZM617.139 486.38L609.923 482.213C609.899 482.2 609.899 482.183 609.923 482.173L611.293 481.383C611.316 481.37 611.343 481.37 611.366 481.383L618.583 485.55C618.606 485.563 618.603 485.58 618.583 485.593L617.213 486.383C617.189 486.393 617.163 486.393 617.139 486.38ZM602.706 478.046L595.49 473.88C595.466 473.866 595.466 473.85 595.49 473.84L596.859 473.05C596.883 473.036 596.909 473.036 596.933 473.05L604.149 477.216C604.173 477.23 604.169 477.246 604.149 477.26L602.78 478.05C602.756 478.06 602.729 478.06 602.706 478.046ZM588.273 469.713L581.056 465.546C581.033 465.533 581.033 465.516 581.056 465.506L582.426 464.716C582.449 464.703 582.476 464.703 582.499 464.716L589.716 468.883C589.739 468.896 589.736 468.913 589.716 468.926L588.346 469.716C588.323 469.726 588.293 469.726 588.273 469.713ZM573.839 461.38L566.623 457.213C566.599 457.2 566.599 457.183 566.623 457.173L567.993 456.383C568.016 456.37 568.043 456.37 568.066 456.383L575.283 460.55C575.306 460.563 575.303 460.58 575.283 460.593L573.913 461.383C573.889 461.393 573.859 461.393 573.839 461.38Z" fill="url(#paint8_linear_268_2366)"/>
<path d="M731.527 449.266L666.004 487.093V592.006H731.527V449.266Z" fill="url(#paint9_linear_268_2366)"/>
<path d="M666.003 487.093L600.483 449.266L666.003 411.439L731.527 449.266L666.003 487.093Z" fill="#F1F3F9"/>
<path d="M666.003 487.093L600.483 449.266V592.006H666.003V487.093Z" fill="url(#paint10_linear_268_2366)"/>
<path d="M313.967 412.763L242.983 453.747V567.407H313.967V412.763Z" fill="url(#paint11_linear_268_2366)"/>
<path d="M242.983 453.747L172 412.763L242.983 371.783L313.967 412.763L242.983 453.747Z" fill="white"/>
<path d="M242.983 453.747L172 412.763V567.407H242.983V453.747Z" fill="url(#paint12_linear_268_2366)"/>
<path d="M373.126 506.737L326.456 533.68V607.417H373.126V506.737Z" fill="url(#paint13_linear_268_2366)"/>
<path d="M326.456 533.68L279.793 506.737L326.456 479.793L373.126 506.737L326.456 533.68Z" fill="white"/>
<path d="M326.456 533.68L279.793 506.737V607.417H326.456V533.68Z" fill="url(#paint14_linear_268_2366)"/>
<path d="M550.513 117.383L546.743 119.56C544.543 120.833 541.506 113.887 539.043 115.313L532.433 119.13C527.503 121.977 529.283 113.69 521.91 117.947C513.246 122.95 513.956 132.99 509.026 135.837L502.413 139.653C499.95 141.077 499.276 146.967 497.073 148.24L493.303 150.42C492.48 150.893 490.913 152.203 490.913 153.92C492.033 153.273 521.91 136.023 521.91 136.023C521.91 136.023 551.786 118.773 552.906 118.127C552.903 116.41 551.333 116.91 550.513 117.383Z" fill="#F6F6FB"/>
<path d="M269.791 403.8C265.767 401.477 260.417 400.407 255.164 400.564H242.984V401.914C241.421 402.407 239.947 403.034 238.627 403.8C231.137 408.157 231.181 415.217 238.717 419.574C240.017 420.324 241.457 420.934 242.984 421.424V422.834H256.807C261.561 422.754 266.267 421.674 269.884 419.574C277.374 415.217 277.334 408.157 269.791 403.8Z" fill="url(#paint15_linear_268_2366)"/>
<path d="M230.23 412.224C226.437 410.03 224.537 407.157 224.547 404.284L224.564 400.604C224.557 403.48 226.45 406.354 230.247 408.547C237.79 412.9 249.977 412.9 257.47 408.55C261.194 406.384 263.057 403.554 263.067 400.72L263.05 404.397C263.044 407.234 261.18 410.064 257.457 412.227C249.96 416.58 237.774 416.58 230.23 412.224Z" fill="url(#paint16_linear_268_2366)"/>
<path d="M230.23 415.9C226.437 413.707 224.537 410.834 224.547 407.96L224.564 404.28C224.557 407.154 226.45 410.03 230.247 412.224C237.79 416.577 249.977 416.577 257.47 412.227C261.194 410.06 263.057 407.23 263.067 404.394L263.05 408.07C263.044 410.907 261.18 413.734 257.457 415.9C249.96 420.257 237.774 420.257 230.23 415.9Z" fill="url(#paint17_linear_268_2366)"/>
<path d="M230.23 419.577C226.437 417.383 224.537 414.51 224.547 411.637L224.564 407.957C224.557 410.833 226.45 413.707 230.247 415.9C237.79 420.253 249.977 420.253 257.47 415.903C261.194 413.737 263.057 410.907 263.067 408.073L263.05 411.75C263.044 414.587 261.18 417.417 257.457 419.58C249.96 423.933 237.774 423.933 230.23 419.577Z" fill="url(#paint18_linear_268_2366)"/>
<path d="M230.247 408.547C222.707 404.193 222.664 397.13 230.157 392.777C237.65 388.42 249.844 388.42 257.384 392.777C264.927 397.13 264.964 404.19 257.474 408.547C249.977 412.9 237.79 412.9 230.247 408.547Z" fill="#F6F6FB"/>
<path d="M254.584 399.22L239.167 400.003L239.647 396.54H235.387L234.23 402.853L254.584 401.68V399.22Z" fill="#BBC0E6"/>
<path d="M379.847 197.983L383.23 196.03C382.077 195.363 379.523 193.52 380.64 192.42C380.963 192.047 381.237 191.663 381.467 191.27C382.023 190.033 386.087 189.773 387.717 189.773V187.01C386.087 187.01 382.02 186.747 381.467 185.513C381.24 185.123 380.963 184.74 380.64 184.363C379.52 183.26 382.073 181.417 383.227 180.75L379.843 178.797C378.69 179.463 375.493 180.937 373.587 180.29C372.94 180.103 372.277 179.943 371.6 179.817C369.46 179.493 369.007 177.147 369.007 176.207H364.22C364.22 177.15 363.767 179.493 361.627 179.817C360.95 179.947 360.287 180.103 359.637 180.29H359.64C357.733 180.937 354.54 179.46 353.387 178.797L350.003 180.75C351.157 181.417 353.71 183.26 352.593 184.363C352.27 184.737 351.993 185.12 351.767 185.51C351.213 186.747 347.147 187.007 345.517 187.007V189.77C347.147 189.77 351.213 190.03 351.77 191.267C351.997 191.657 352.273 192.04 352.597 192.417C353.717 193.517 351.163 195.363 350.01 196.027L353.393 197.98C354.547 197.313 357.743 195.84 359.65 196.487C360.297 196.673 360.96 196.833 361.64 196.963C363.777 197.287 364.233 199.633 364.233 200.573H369.017C369.017 199.633 369.47 197.287 371.61 196.963H371.607C372.283 196.833 372.95 196.677 373.597 196.487C375.5 195.843 378.697 197.317 379.847 197.983ZM360.62 191.857C357.307 189.943 357.307 186.84 360.62 184.93C363.933 183.017 369.307 183.017 372.617 184.93C375.93 186.843 375.93 189.943 372.617 191.857C369.303 193.77 363.933 193.77 360.62 191.857Z" fill="#E8ECF7"/>
<path d="M724 248.263C725.503 245.713 727.787 243.553 730.843 241.79C733.9 240.026 736.287 239.51 738.007 240.246C739.727 240.983 740.583 242.696 740.583 245.383C740.583 246.646 740.41 247.87 740.06 249.06C739.427 251.236 738.23 253.51 736.473 255.876C735.777 256.79 735.3 257.416 735.047 257.756C734.793 258.096 734.283 258.76 733.513 259.753C732.747 260.746 732.2 261.683 731.873 262.563C731.55 263.446 731.34 265.003 731.243 267.233L729.793 268.07L729.747 265.71C729.747 264.1 730.343 261.696 731.54 258.503C732.737 255.306 733.333 252.31 733.333 249.513C733.333 247.246 732.993 245.686 732.313 244.836C731.633 243.986 730.54 243.996 729.033 244.863C728.05 245.43 727.35 246.076 726.93 246.803C726.51 247.53 726.3 248.166 726.3 248.716C726.3 248.953 726.333 249.126 726.397 249.236C726.46 249.346 726.58 249.47 726.753 249.606L727.087 249.88C727.45 250.183 727.707 250.5 727.86 250.833C728.01 251.166 728.087 251.653 728.087 252.293C728.087 253.336 727.787 254.343 727.183 255.31C726.58 256.28 725.86 257.006 725.02 257.49C724.133 258.003 723.363 258.076 722.717 257.71C722.067 257.343 721.743 256.456 721.743 255.05C721.743 253.08 722.493 250.816 724 248.263ZM727.67 274.993C728.47 273.61 729.44 272.586 730.58 271.926C731.703 271.276 732.67 271.18 733.48 271.64C734.287 272.096 734.69 272.983 734.69 274.3C734.69 275.616 734.287 276.97 733.48 278.36C732.673 279.75 731.707 280.77 730.58 281.42C729.44 282.08 728.47 282.176 727.67 281.713C726.87 281.253 726.47 280.363 726.47 279.046C726.47 277.73 726.87 276.376 727.67 274.993Z" fill="#E8ECF7"/>
<path d="M626.643 484.333C627.737 483.8 629.03 483.963 630.516 484.82C631.963 485.653 633.243 486.97 634.356 488.767C635.473 490.563 636.03 492.787 636.03 495.437C636.03 496.27 635.853 497.427 635.503 498.907C635.153 500.387 634.52 502.773 633.606 506.077C633.053 508.063 632.676 509.767 632.473 511.183C632.27 512.6 631.946 515.5 631.5 519.88L629.62 518.793C629.003 512.597 628.59 508.75 628.376 507.253C628.163 505.757 627.74 503.583 627.1 500.737C626.293 497.103 625.773 494.693 625.536 493.503C625.176 491.65 624.993 490.257 624.993 489.327C625 486.533 625.547 484.867 626.643 484.333ZM626.61 524.843C627.683 524.223 628.983 524.357 630.513 525.24C632.043 526.123 633.346 527.493 634.416 529.353C635.49 531.213 636.026 533.027 636.026 534.793C636.026 536.56 635.49 537.753 634.416 538.373C633.343 538.993 632.043 538.86 630.513 537.977C628.983 537.093 627.68 535.72 626.61 533.863C625.537 532.003 625 530.19 625 528.423C625 526.657 625.537 525.463 626.61 524.843Z" fill="#E8ECF7"/>
<path d="M762.437 399.437C762.817 399.04 763.287 398.753 763.793 398.547H769.77L772.267 393.08L770.013 392.73C769.33 392.623 768.547 392.403 767.91 392.033C767.183 391.613 766.65 391.01 766.657 390.18C766.713 389.453 766.707 388.727 766.65 388.004C766.603 386.444 768.51 385.68 769.96 385.454L772.217 385.103L769.657 379.64H763.687C763.49 379.56 763.3 379.47 763.117 379.367C762.823 379.197 762.553 378.994 762.313 378.747C761.74 378.104 761.107 377.474 760.423 376.86C759.033 375.517 760.027 374.3 761.09 373.683L762.733 372.727L755.807 368.727L754.163 369.684C753.103 370.3 751.007 370.88 748.687 370.08C747.62 369.684 746.53 369.32 745.42 368.99C744.993 368.854 744.64 368.697 744.35 368.527C743.02 367.757 742.95 366.734 743.263 366.044L743.86 364.744L734.417 363.277L733.82 364.58C733.437 365.424 732.127 366.534 729.433 366.514C728.18 366.48 726.923 366.48 725.673 366.51C724.24 366.524 723.193 366.214 722.467 365.797C721.833 365.43 721.443 364.977 721.257 364.584L720.65 363.277L711.223 364.744L711.837 366.044C712.23 366.887 712.057 368.227 709.713 368.99C708.607 369.32 707.52 369.684 706.46 370.08C704.15 370.877 702.047 370.3 700.98 369.684L699.323 368.727L692.44 372.727L694.093 373.683C695.16 374.3 696.17 375.514 694.8 376.857C694.12 377.473 693.493 378.104 692.927 378.747C691.62 380.104 689.31 380.21 687.853 379.987L685.593 379.637L683.093 385.1L685.35 385.45C686.03 385.553 686.813 385.777 687.453 386.147C688.177 386.563 688.713 387.167 688.707 388C688.647 388.724 688.653 389.45 688.71 390.174C688.727 390.747 688.48 391.21 688.09 391.583H672.693V398.54H685.703H691.677C691.87 398.62 692.06 398.707 692.237 398.81C692.53 398.98 692.803 399.183 693.04 399.43C693.613 400.073 694.25 400.703 694.937 401.317C695.2 401.573 695.377 401.823 695.483 402.067H686.543V409.447H700.067V409.147L701.193 408.493C702.253 407.877 704.35 407.297 706.677 408.097C707.093 408.25 707.513 408.397 707.937 408.543V414.9H720.863V414.887L720.943 414.9L721.54 413.597C721.58 413.503 721.637 413.407 721.703 413.31V414.9H734.713L744.14 413.437L743.53 412.133C743.177 411.38 743.283 410.227 744.99 409.447H756.047L762.93 405.447L761.28 404.493C760.21 403.877 759.2 402.657 760.573 401.317C761.247 400.71 761.87 400.08 762.437 399.437ZM740.257 396.353C733.327 400.383 722.04 400.387 715.06 396.357C708.08 392.327 708.047 385.79 714.977 381.76C721.917 377.73 733.197 377.73 740.177 381.76C747.16 385.79 747.193 392.323 740.257 396.353Z" fill="url(#paint19_linear_268_2366)"/>
<path d="M727.091 370.07C720.161 366.067 708.957 366.067 702.067 370.07C695.941 373.63 695.297 379.164 700.117 383.16C700.691 382.687 701.337 382.234 702.067 381.81C708.954 377.807 720.161 377.807 727.091 381.81C727.854 382.25 728.527 382.72 729.121 383.21C733.971 379.214 733.291 373.647 727.091 370.07Z" fill="url(#paint20_linear_268_2366)"/>
<path d="M730.294 354.267C730.2 354.473 730.14 354.713 730.137 354.967L730.104 366.747C730.104 366.493 730.164 366.253 730.26 366.047L730.857 364.747L730.89 352.967L730.294 354.267Z" fill="#BBBFE2"/>
<path d="M698.861 354.267L698.251 352.963L698.218 364.743L698.831 366.043C698.931 366.26 698.994 366.51 698.994 366.773L699.028 354.993C699.028 354.733 698.964 354.483 698.861 354.267Z" fill="#BBBFE2"/>
<path d="M748.12 361.907C747.433 362.307 746.773 362.957 746.77 363.734L746.736 375.514C746.74 374.74 747.396 374.09 748.086 373.69L749.73 372.734L749.763 360.954L748.12 361.907Z" fill="#BBBFE2"/>
<path d="M681.117 361.907L679.464 360.95L679.431 372.73L681.084 373.687C681.784 374.09 682.454 374.747 682.454 375.534L682.487 363.754C682.491 362.97 681.817 362.31 681.117 361.907Z" fill="#CED2F4"/>
<path d="M756.99 373.677C755.56 373.9 753.684 374.647 753.68 376.163L753.644 387.943C753.65 386.423 755.524 385.68 756.957 385.457L759.214 385.107L759.247 373.327L756.99 373.677Z" fill="#BBBFE2"/>
<path d="M753.724 377.404L753.69 389.184C753.69 389.517 753.677 389.85 753.65 390.184L753.684 378.404C753.71 378.07 753.724 377.737 753.724 377.404Z" fill="#242D3C"/>
<path d="M675.724 378.173L675.73 376.223C675.737 375.393 675.204 374.79 674.48 374.37C673.84 374 673.057 373.777 672.377 373.673L670.12 373.323L670.087 385.1L672.34 385.45C673.02 385.553 673.804 385.777 674.444 386.147C675.057 386.5 675.533 386.99 675.66 387.637L675.657 389.013C675.657 389.4 675.67 389.79 675.7 390.173L675.734 378.393C675.727 378.327 675.73 378.247 675.724 378.173Z" fill="#CED2F4"/>
<path d="M675.734 378.46L675.7 390.24C675.7 390.22 675.7 390.2 675.7 390.18L675.734 378.4C675.734 378.42 675.734 378.44 675.734 378.46Z" fill="#242D3C"/>
<path d="M759.293 381.3L759.26 393.08L756.76 398.547L756.793 386.767L759.293 381.3Z" fill="#BBBFE2"/>
<path d="M672.724 386.767L672.691 398.547L670.134 393.083L670.167 381.303L672.724 386.767Z" fill="#CED2F4"/>
<path d="M754.537 386.417C753.084 386.19 750.77 386.297 749.46 387.66C748.894 388.303 748.274 388.93 747.59 389.543C747.117 390.007 746.927 390.457 746.927 390.87L746.894 402.65C746.894 402.237 747.084 401.787 747.557 401.324C748.24 400.71 748.864 400.08 749.43 399.437C750.737 398.073 753.05 397.97 754.504 398.193L756.76 398.544L756.794 386.763L754.537 386.417Z" fill="url(#paint21_linear_268_2366)"/>
<path d="M681.96 389.544C681.273 388.93 680.637 388.3 680.063 387.657C679.827 387.41 679.553 387.207 679.26 387.04C677.93 386.27 676.16 386.234 674.973 386.417L672.727 386.767L672.693 398.547L674.943 398.197C676.13 398.014 677.9 398.05 679.23 398.817C679.523 398.987 679.793 399.19 680.037 399.437C680.61 400.08 681.243 400.71 681.93 401.324C682.42 401.797 682.613 402.254 682.61 402.674L682.643 390.894C682.64 390.474 682.447 390.017 681.96 389.544Z" fill="url(#paint22_linear_268_2366)"/>
<path d="M749.951 393.673L749.917 405.453L743.034 409.453L743.067 397.673L749.951 393.673Z" fill="#BBBFE2"/>
<path d="M686.577 397.673L686.543 409.453L679.613 405.453L679.647 393.673L686.577 397.673Z" fill="#CED2F4"/>
<path d="M741.411 396.717C740.341 396.104 738.241 395.524 735.931 396.327C734.874 396.72 733.787 397.084 732.677 397.417C730.934 397.984 730.391 398.87 730.391 399.634L730.357 411.414C730.357 410.65 730.904 409.764 732.644 409.197C733.754 408.864 734.841 408.5 735.901 408.107C738.211 407.307 740.311 407.884 741.381 408.5L743.041 409.457L743.074 397.677L741.411 396.717Z" fill="url(#paint23_linear_268_2366)"/>
<path d="M698.036 397.877C697.743 397.707 697.386 397.55 696.96 397.414C695.85 397.084 694.763 396.717 693.7 396.324C691.376 395.524 689.28 396.104 688.22 396.72L686.576 397.677L686.543 409.457L688.186 408.5C689.246 407.884 691.343 407.304 693.666 408.104C694.73 408.5 695.816 408.864 696.93 409.194C697.356 409.33 697.71 409.487 698.003 409.657C698.933 410.194 699.246 410.854 699.243 411.44L699.276 399.66C699.28 399.077 698.966 398.414 698.036 397.877Z" fill="url(#paint24_linear_268_2366)"/>
<path d="M731.163 401.664L731.13 413.444L721.703 414.904L721.736 403.127L731.163 401.664Z" fill="#BBBFE2"/>
<path d="M721.124 401.82C720.94 401.427 720.55 400.974 719.914 400.604C719.19 400.184 718.144 399.877 716.707 399.89C715.46 399.92 714.204 399.92 712.95 399.887C710.257 399.87 708.95 400.98 708.564 401.82L707.967 403.124L707.934 414.904L708.527 413.6C708.914 412.757 710.224 411.647 712.917 411.667C714.17 411.7 715.427 411.7 716.674 411.674C718.11 411.66 719.157 411.97 719.88 412.387C720.517 412.754 720.904 413.207 721.09 413.604L721.7 414.907L721.734 403.127L721.124 401.82Z" fill="url(#paint25_linear_268_2366)"/>
<path d="M748.297 392.72L749.95 393.674L743.067 397.674L741.41 396.717C740.34 396.104 738.24 395.524 735.93 396.327C734.874 396.72 733.787 397.084 732.677 397.417C730.334 398.18 730.16 399.52 730.554 400.36L731.167 401.664L721.74 403.127L721.13 401.824C720.947 401.43 720.557 400.977 719.92 400.607C719.197 400.187 718.15 399.88 716.714 399.894C715.467 399.924 714.21 399.924 712.957 399.89C710.264 399.874 708.957 400.984 708.57 401.824L707.974 403.127L698.53 401.664L699.13 400.357C699.444 399.667 699.37 398.647 698.044 397.877C697.75 397.707 697.394 397.55 696.967 397.414C695.857 397.084 694.77 396.717 693.707 396.324C691.384 395.524 689.287 396.104 688.227 396.72L686.584 397.677L679.657 393.677L681.3 392.72C682.36 392.104 683.357 390.89 681.967 389.547C681.28 388.934 680.647 388.304 680.07 387.66C679.834 387.414 679.56 387.21 679.267 387.04C677.937 386.274 676.167 386.237 674.98 386.42L672.734 386.77L670.177 381.307L672.427 380.957C673.88 380.73 675.787 379.967 675.74 378.404C675.684 377.68 675.68 376.954 675.737 376.23C675.744 375.4 675.21 374.797 674.487 374.377C673.847 374.007 673.064 373.784 672.384 373.68L670.127 373.33L672.624 367.867L674.884 368.217C676.337 368.44 678.647 368.334 679.957 366.977C680.524 366.334 681.15 365.704 681.827 365.087C683.197 363.744 682.19 362.53 681.12 361.914L679.467 360.957L686.35 356.96L688.007 357.917C689.074 358.534 691.177 359.11 693.487 358.314C694.547 357.917 695.634 357.554 696.744 357.224C699.087 356.46 699.26 355.12 698.867 354.277L698.257 352.974L707.684 351.507L708.29 352.813C708.477 353.207 708.864 353.657 709.5 354.027C710.227 354.447 711.274 354.757 712.71 354.74C713.957 354.71 715.214 354.71 716.47 354.744C719.164 354.764 720.477 353.653 720.857 352.81L721.454 351.507L730.897 352.974L730.3 354.277C729.987 354.967 730.057 355.994 731.387 356.76C731.68 356.93 732.034 357.084 732.457 357.224C733.567 357.554 734.657 357.917 735.724 358.314C738.047 359.114 740.144 358.534 741.2 357.917L742.847 356.96L749.774 360.96L748.13 361.914C747.07 362.53 746.074 363.747 747.467 365.09C748.15 365.704 748.784 366.337 749.357 366.977C749.594 367.224 749.867 367.427 750.16 367.597C751.49 368.364 753.264 368.4 754.45 368.217L756.697 367.87L759.257 373.334L757 373.684C755.55 373.91 753.64 374.674 753.69 376.234C753.747 376.957 753.75 377.684 753.694 378.41C753.68 379.24 754.22 379.847 754.944 380.264C755.58 380.634 756.364 380.857 757.05 380.96L759.3 381.307L756.8 386.774L754.544 386.424C753.09 386.197 750.777 386.304 749.467 387.667C748.9 388.31 748.28 388.937 747.597 389.55C746.22 390.887 747.227 392.104 748.297 392.72ZM702.087 384.577C709.067 388.607 720.35 388.604 727.284 384.574C734.22 380.54 734.184 374.007 727.204 369.977C720.224 365.947 708.944 365.944 702.004 369.977C695.074 374.01 695.107 380.547 702.087 384.577Z" fill="#F0F0F5"/>
<path d="M707.967 403.127L707.937 414.904L698.49 413.444L698.524 401.664L707.967 403.127Z" fill="#CED2F4"/>
<path d="M732.297 367.99C722.471 362.32 706.594 362.317 696.827 367.99C692.181 370.693 689.761 374.193 689.561 377.733C689.751 381.317 692.207 384.87 696.944 387.603C706.771 393.277 722.647 393.27 732.404 387.6C737.057 384.897 739.477 381.393 739.677 377.857C739.49 374.273 737.03 370.723 732.297 367.99ZM727.17 384.577C720.287 388.577 709.08 388.58 702.15 384.58C698.874 382.687 697.141 380.233 696.951 377.753C697.144 375.303 698.851 372.887 702.07 371.017C708.957 367.013 720.164 367.013 727.094 371.017C730.374 372.91 732.107 375.357 732.297 377.84C732.101 380.287 730.394 382.703 727.17 384.577Z" fill="#E0E0EB"/>
<path d="M696.83 367.99C706.597 362.317 722.473 362.32 732.3 367.99C737.03 370.723 739.49 374.27 739.683 377.85C739.91 373.957 737.45 370.02 732.3 367.047C722.473 361.377 706.597 361.373 696.83 367.047C691.77 369.987 689.353 373.877 689.563 377.727C689.767 374.187 692.183 370.69 696.83 367.99Z" fill="url(#paint26_linear_268_2366)"/>
<path d="M719.293 335.73H597.723L586.68 344.237L587.456 352.743H689.823L719.293 335.73Z" fill="url(#paint27_linear_268_2366)"/>
<path d="M565.896 340.863C571.786 346.753 584.472 351.997 587.459 352.743C590.442 351.997 603.129 346.753 609.019 340.863C595.515 340.057 579.399 340.057 565.896 340.863Z" fill="#4141AA"/>
<path d="M563.152 316.62V334.383C563.152 337.973 565.526 341.563 570.269 344.303C579.759 349.783 595.149 349.783 604.639 344.303C609.386 341.563 611.759 337.973 611.759 334.383V316.62H563.152Z" fill="url(#paint28_linear_268_2366)"/>
<path d="M613.215 325.664C613.215 325.19 612.889 324.707 612.449 324.444C612.975 323.214 613.252 321.93 613.252 320.617C613.215 319.934 612.529 319.207 611.799 319.207C611.072 319.207 611.795 320.617 611.795 320.617H611.459C611.459 324.12 609.032 327.454 604.619 330.004C595.165 335.46 579.779 335.46 570.325 330.004C565.915 327.457 563.485 324.127 563.485 320.617H563.112C563.112 320.617 563.835 319.207 563.109 319.207C562.382 319.207 561.695 319.934 561.695 320.617C561.695 321.924 561.969 323.2 562.495 324.427C562.039 324.684 561.695 325.18 561.695 325.664C561.695 326.97 561.969 328.244 562.492 329.467C562.039 329.724 561.695 330.224 561.695 330.704C561.695 334.874 564.442 338.757 569.432 341.637C579.382 347.38 595.569 347.38 605.519 341.637C610.505 338.757 613.252 334.87 613.252 330.704C613.215 330.234 612.889 329.747 612.449 329.487C612.975 328.254 613.252 326.974 613.215 325.664ZM604.622 340.087C595.169 345.544 579.782 345.544 570.329 340.087C566.185 337.697 563.792 334.61 563.515 331.34C564.829 333.297 566.819 335.084 569.432 336.594C579.382 342.337 595.569 342.337 605.519 336.594C608.132 335.084 610.125 333.297 611.435 331.34C611.159 334.61 608.762 337.697 604.622 340.087ZM604.622 335.044C595.169 340.504 579.782 340.504 570.329 335.044C566.185 332.654 563.792 329.567 563.515 326.297C564.829 328.254 566.819 330.044 569.432 331.55C579.382 337.294 595.569 337.294 605.519 331.55C608.132 330.04 610.125 328.254 611.435 326.297C611.159 329.567 608.765 332.654 604.622 335.044Z" fill="url(#paint29_linear_268_2366)"/>
<path d="M630.512 274.314C630.512 250.534 611.236 231.257 587.456 231.257C563.672 231.257 544.396 250.534 544.396 274.314C544.396 286.407 549.389 297.327 557.415 305.147C560.685 308.43 561.495 314.364 561.495 316.03C561.495 319.867 564.029 323.7 569.099 326.627C579.236 332.48 595.672 332.477 605.806 326.627C610.876 323.7 613.409 319.864 613.409 316.03C613.409 314.364 614.219 308.43 617.519 305.13C625.522 297.327 630.512 286.407 630.512 274.314Z" fill="url(#paint30_radial_268_2366)"/>
<path d="M569.102 305.437C579.239 299.584 595.672 299.584 605.809 305.437C615.949 311.29 615.949 320.777 605.809 326.63C595.675 332.48 579.239 332.484 569.102 326.63C558.962 320.777 558.962 311.287 569.102 305.437Z" fill="url(#paint31_linear_268_2366)"/>
<path d="M553.092 276.404C551.939 276.404 551.002 275.467 551.002 274.314C551.002 254.21 567.355 237.857 587.455 237.857C588.608 237.857 589.545 238.794 589.545 239.947C589.545 241.1 588.608 242.037 587.455 242.037C569.659 242.037 555.182 256.517 555.182 274.314C555.182 275.467 554.249 276.404 553.092 276.404Z" fill="white"/>
<path d="M597.079 269.207C596.526 268.89 595.916 268.893 595.349 269.217C594.159 269.903 593.279 272.147 592.709 274.997C592.326 273.857 591.822 272.997 591.169 272.62C590.619 272.303 590.002 272.307 589.439 272.63C588.249 273.317 587.366 275.56 586.796 278.407C586.412 277.27 585.906 276.407 585.256 276.033C584.706 275.713 584.092 275.72 583.526 276.047C582.339 276.733 581.456 278.973 580.882 281.823C580.499 280.683 579.996 279.823 579.342 279.447C578.789 279.13 578.176 279.133 577.612 279.46C575.376 280.75 574.209 287.523 574.209 293.547C574.209 299.68 575.669 301.493 577.082 303.243C578.576 305.097 580.119 307.01 580.119 315.197C580.119 315.693 580.519 316.093 581.012 316.093C581.509 316.093 581.909 315.693 581.909 315.197C581.909 306.38 580.086 304.117 578.476 302.12C577.146 300.47 575.996 299.047 575.996 293.543C575.996 286.717 577.439 281.683 578.486 281.023C579.062 281.407 580.119 284.427 580.116 290.13C580.116 290.623 580.516 291.023 581.009 291.023C581.506 291.023 581.906 290.623 581.906 290.13C581.906 283.303 583.346 278.267 584.392 277.61C584.969 277.997 586.026 281.013 586.026 286.717C586.026 287.21 586.429 287.61 586.919 287.61C587.416 287.61 587.816 287.21 587.816 286.717C587.816 279.89 589.259 274.853 590.302 274.197C590.882 274.58 591.936 277.597 591.936 283.303C591.936 283.797 592.336 284.197 592.832 284.197C593.326 284.197 593.729 283.797 593.729 283.303C593.729 276.477 595.169 271.44 596.216 270.783C596.796 271.17 597.849 274.19 597.849 279.89C597.849 285.557 596.576 288.643 595.222 291.91C593.682 295.637 591.936 299.86 591.936 308.37C591.936 308.863 592.336 309.263 592.832 309.263C593.326 309.263 593.729 308.863 593.729 308.37C593.729 300.217 595.329 296.34 596.879 292.593C598.299 289.16 599.642 285.91 599.642 279.89C599.649 275.443 598.972 270.3 597.079 269.207Z" fill="url(#paint32_linear_268_2366)"/>
<path d="M529.936 445.053H408.367L397.323 453.56L398.1 462.067H500.466L529.936 445.053Z" fill="url(#paint33_linear_268_2366)"/>
<path d="M376.54 450.187C382.43 456.077 395.117 461.32 398.103 462.067C401.087 461.32 413.777 456.077 419.663 450.187C406.16 449.384 390.043 449.384 376.54 450.187Z" fill="#4141AA"/>
<path d="M373.797 425.943V443.707C373.797 447.297 376.17 450.887 380.914 453.627C390.404 459.107 405.794 459.107 415.284 453.627C420.03 450.887 422.404 447.297 422.404 443.707V425.943H373.797Z" fill="url(#paint34_linear_268_2366)"/>
<path d="M423.86 434.987C423.86 434.514 423.533 434.03 423.093 433.767C423.62 432.537 423.897 431.254 423.897 429.94C423.86 429.257 423.173 428.53 422.443 428.53C421.717 428.53 422.44 429.94 422.44 429.94H422.103C422.103 433.444 419.677 436.777 415.263 439.327C405.81 444.784 390.423 444.784 380.97 439.327C376.56 436.78 374.13 433.45 374.13 429.94H373.757C373.757 429.94 374.48 428.53 373.753 428.53C373.027 428.53 372.34 429.257 372.34 429.94C372.34 431.247 372.613 432.524 373.14 433.75C372.683 434.007 372.34 434.504 372.34 434.987C372.34 436.294 372.613 437.567 373.137 438.79C372.683 439.05 372.34 439.547 372.34 440.027C372.34 444.197 375.086 448.08 380.076 450.96C390.026 456.704 406.213 456.704 416.163 450.96C421.15 448.08 423.897 444.194 423.897 440.027C423.86 439.557 423.533 439.07 423.093 438.81C423.623 437.58 423.897 436.297 423.86 434.987ZM415.267 449.414C405.813 454.87 390.427 454.87 380.973 449.414C376.83 447.024 374.436 443.937 374.16 440.667C375.47 442.624 377.463 444.41 380.076 445.92C390.026 451.664 406.213 451.664 416.163 445.92C418.776 444.41 420.77 442.624 422.08 440.667C421.803 443.937 419.41 447.02 415.267 449.414ZM415.267 444.37C405.813 449.83 390.427 449.83 380.973 444.37C376.83 441.98 374.436 438.894 374.16 435.624C375.47 437.58 377.463 439.37 380.076 440.88C390.026 446.624 406.213 446.624 416.163 440.88C418.776 439.37 420.77 437.584 422.08 435.624C421.803 438.894 419.41 441.977 415.267 444.37Z" fill="url(#paint35_linear_268_2366)"/>
<path d="M441.16 383.637C441.16 359.857 421.883 340.58 398.103 340.58C374.323 340.58 355.043 359.857 355.043 383.637C355.043 395.73 360.036 406.65 368.063 414.47C371.333 417.753 372.143 423.687 372.143 425.353C372.143 429.19 374.676 433.023 379.746 435.95C389.883 441.803 406.32 441.8 416.453 435.95C421.523 433.023 424.056 429.187 424.056 425.353C424.056 423.687 424.866 417.753 428.166 414.453C436.166 406.653 441.16 395.73 441.16 383.637Z" fill="url(#paint36_radial_268_2366)"/>
<path d="M379.746 414.76C389.883 408.907 406.316 408.907 416.453 414.76C426.593 420.613 426.593 430.1 416.453 435.953C406.319 441.803 389.883 441.807 379.746 435.953C369.609 430.1 369.609 420.613 379.746 414.76Z" fill="url(#paint37_linear_268_2366)"/>
<path d="M363.736 385.73C362.583 385.73 361.646 384.794 361.646 383.64C361.646 363.537 378 347.184 398.1 347.184C399.253 347.184 400.19 348.12 400.19 349.274C400.19 350.427 399.253 351.364 398.1 351.364C380.303 351.364 365.826 365.844 365.826 383.64C365.826 384.794 364.893 385.73 363.736 385.73Z" fill="white"/>
<path d="M407.724 378.53C407.17 378.213 406.56 378.217 405.994 378.543C404.804 379.23 403.924 381.473 403.354 384.323C402.97 383.183 402.467 382.323 401.814 381.947C401.264 381.63 400.647 381.633 400.084 381.957C398.894 382.643 398.01 384.887 397.44 387.733C397.057 386.597 396.55 385.733 395.9 385.36C395.35 385.04 394.737 385.047 394.17 385.373C392.984 386.06 392.1 388.3 391.527 391.15C391.144 390.01 390.64 389.15 389.987 388.773C389.434 388.457 388.82 388.46 388.257 388.787C386.02 390.077 384.854 396.85 384.854 402.873C384.854 409.007 386.314 410.82 387.727 412.57C389.22 414.423 390.764 416.337 390.764 424.523C390.764 425.02 391.164 425.42 391.657 425.42C392.154 425.42 392.554 425.02 392.554 424.523C392.554 415.707 390.73 413.443 389.12 411.447C387.79 409.797 386.64 408.373 386.64 402.87C386.64 396.043 388.084 391.01 389.13 390.35C389.707 390.733 390.764 393.753 390.76 399.457C390.76 399.95 391.16 400.35 391.654 400.35C392.15 400.35 392.55 399.95 392.55 399.457C392.55 392.63 393.99 387.593 395.037 386.937C395.614 387.32 396.67 390.34 396.67 396.043C396.67 396.537 397.074 396.937 397.564 396.937C398.06 396.937 398.46 396.537 398.46 396.043C398.46 389.217 399.904 384.18 400.947 383.523C401.527 383.907 402.58 386.923 402.58 392.63C402.58 393.123 402.98 393.523 403.477 393.523C403.97 393.523 404.374 393.123 404.374 392.63C404.374 385.803 405.814 380.767 406.86 380.11C407.44 380.497 408.494 383.517 408.494 389.217C408.494 394.883 407.22 397.97 405.867 401.237C404.327 404.963 402.58 409.187 402.58 417.697C402.58 418.19 402.98 418.593 403.477 418.593C403.97 418.593 404.374 418.193 404.374 417.697C404.374 409.543 405.974 405.667 407.524 401.92C408.944 398.487 410.287 395.237 410.287 389.217C410.294 384.77 409.617 379.627 407.724 378.53Z" fill="url(#paint38_linear_268_2366)"/>
<path d="M650.78 387.017H505.083L491.847 397.21L492.78 407.403H615.463L650.78 387.017Z" fill="url(#paint39_linear_268_2366)"/>
<path d="M466.936 393.167C473.996 400.224 489.199 406.51 492.779 407.403C496.356 406.51 511.562 400.224 518.619 393.167C502.436 392.2 483.119 392.2 466.936 393.167Z" fill="#4141AA"/>
<path d="M463.649 364.113V385.4C463.649 389.703 466.493 394.007 472.179 397.29C483.556 403.857 501.999 403.857 513.369 397.29C519.059 394.007 521.903 389.703 521.903 385.4V364.113H463.649Z" fill="url(#paint40_linear_268_2366)"/>
<path d="M523.649 374.95C523.649 374.383 523.256 373.8 522.729 373.487C523.363 372.01 523.693 370.473 523.693 368.903C523.649 368.083 522.826 367.213 521.953 367.213C521.079 367.213 521.949 368.903 521.949 368.903H521.546C521.546 373.103 518.636 377.097 513.349 380.15C502.019 386.69 483.579 386.69 472.249 380.15C466.963 377.097 464.049 373.107 464.049 368.903H463.603C463.603 368.903 464.469 367.213 463.596 367.213C462.726 367.213 461.899 368.087 461.899 368.903C461.899 370.47 462.229 372 462.859 373.47C462.313 373.777 461.899 374.373 461.899 374.95C461.899 376.513 462.229 378.043 462.856 379.51C462.313 379.82 461.899 380.417 461.899 380.993C461.899 385.99 465.193 390.647 471.169 394.097C483.093 400.98 502.493 400.98 514.419 394.097C520.396 390.643 523.689 385.99 523.689 380.993C523.646 380.43 523.253 379.847 522.726 379.533C523.363 378.057 523.693 376.52 523.649 374.95ZM513.349 392.24C502.019 398.78 483.579 398.78 472.249 392.24C467.286 389.373 464.416 385.677 464.083 381.76C465.656 384.107 468.039 386.247 471.173 388.057C483.096 394.94 502.496 394.94 514.423 388.057C517.556 386.247 519.943 384.107 521.513 381.763C521.183 385.673 518.316 389.373 513.349 392.24ZM513.349 386.193C502.019 392.737 483.579 392.737 472.249 386.193C467.286 383.327 464.416 379.63 464.083 375.713C465.656 378.06 468.039 380.203 471.173 382.01C483.096 388.893 502.496 388.893 514.423 382.01C517.556 380.2 519.943 378.057 521.513 375.713C521.183 379.63 518.316 383.327 513.349 386.193Z" fill="url(#paint41_linear_268_2366)"/>
<path d="M544.38 313.41C544.38 284.91 521.277 261.807 492.777 261.807C464.277 261.807 441.17 284.91 441.17 313.41C441.17 327.903 447.153 340.99 456.773 350.363C460.693 354.297 461.663 361.41 461.663 363.407C461.663 368.003 464.7 372.6 470.777 376.107C482.927 383.123 502.623 383.12 514.77 376.107C520.847 372.6 523.883 368.003 523.883 363.407C523.883 361.41 524.853 354.297 528.81 350.343C538.4 340.99 544.38 327.903 544.38 313.41Z" fill="url(#paint42_radial_268_2366)"/>
<path d="M470.78 350.71C482.93 343.694 502.624 343.694 514.774 350.71C526.924 357.724 526.924 369.094 514.774 376.11C502.627 383.124 482.93 383.127 470.78 376.11C458.63 369.094 458.63 357.724 470.78 350.71Z" fill="url(#paint43_linear_268_2366)"/>
<path d="M451.597 315.5C450.444 315.5 449.507 314.563 449.507 313.41C449.507 289.547 468.92 270.133 492.78 270.133C493.934 270.133 494.87 271.07 494.87 272.223C494.87 273.377 493.934 274.313 492.78 274.313C471.224 274.313 453.687 291.85 453.687 313.41C453.687 314.563 452.75 315.5 451.597 315.5Z" fill="white"/>
<path d="M504.31 307.29C503.647 306.91 502.913 306.913 502.237 307.303C500.813 308.127 499.753 310.813 499.07 314.23C498.61 312.863 498.007 311.83 497.223 311.38C496.563 311 495.827 311.003 495.15 311.393C493.727 312.217 492.667 314.903 491.983 318.317C491.523 316.953 490.917 315.92 490.14 315.47C489.48 315.087 488.743 315.093 488.067 315.487C486.643 316.31 485.583 318.993 484.9 322.41C484.44 321.043 483.837 320.013 483.057 319.56C482.393 319.18 481.66 319.183 480.983 319.577C478.303 321.123 476.903 329.24 476.903 336.46C476.903 343.81 478.653 345.983 480.347 348.083C482.137 350.303 483.987 352.597 483.987 362.407C483.987 363 484.467 363.48 485.06 363.48C485.653 363.48 486.137 363 486.137 362.407C486.137 351.84 483.95 349.127 482.02 346.737C480.427 344.76 479.05 343.053 479.05 336.46C479.05 328.28 480.78 322.247 482.033 321.457C482.727 321.917 483.99 325.533 483.99 332.37C483.99 332.96 484.47 333.44 485.063 333.44C485.657 333.44 486.14 332.963 486.14 332.37C486.14 324.19 487.867 318.153 489.12 317.363C489.813 317.823 491.077 321.443 491.077 328.28C491.077 328.873 491.56 329.353 492.15 329.353C492.743 329.353 493.227 328.873 493.227 328.28C493.227 320.097 494.953 314.063 496.207 313.277C496.9 313.737 498.167 317.353 498.167 324.19C498.167 324.783 498.647 325.263 499.24 325.263C499.833 325.263 500.313 324.783 500.313 324.19C500.313 316.007 502.04 309.973 503.293 309.183C503.987 309.647 505.25 313.263 505.25 320.097C505.25 326.887 503.723 330.587 502.103 334.503C500.26 338.97 498.167 344.03 498.167 354.227C498.167 354.82 498.647 355.3 499.24 355.3C499.833 355.3 500.313 354.82 500.313 354.227C500.313 344.453 502.233 339.81 504.09 335.32C505.79 331.203 507.4 327.31 507.4 320.097C507.39 314.767 506.58 308.603 504.31 307.29Z" fill="url(#paint44_linear_268_2366)"/>
<path d="M492.143 252.787C491.567 252.787 491.097 252.32 491.097 251.74V225.41C491.097 224.833 491.563 224.363 492.143 224.363C492.723 224.363 493.19 224.83 493.19 225.41V251.74C493.19 252.317 492.723 252.787 492.143 252.787Z" fill="#FFC16B"/>
<path d="M521.693 260.323C521.523 260.323 521.353 260.283 521.193 260.196C520.686 259.92 520.5 259.286 520.776 258.776L529.61 242.593C529.886 242.086 530.52 241.9 531.026 242.176C531.533 242.453 531.72 243.086 531.443 243.596L522.61 259.78C522.42 260.126 522.063 260.323 521.693 260.323Z" fill="#FFC16B"/>
<path d="M462.6 260.323C462.23 260.323 461.87 260.126 461.68 259.78L452.847 243.596C452.57 243.09 452.757 242.453 453.263 242.176C453.77 241.9 454.403 242.086 454.683 242.593L463.517 258.776C463.793 259.283 463.607 259.92 463.1 260.196C462.94 260.283 462.77 260.323 462.6 260.323Z" fill="#FFC16B"/>
<path d="M492.143 252.787C491.567 252.787 491.097 252.32 491.097 251.74V225.41C491.097 224.833 491.563 224.363 492.143 224.363C492.723 224.363 493.19 224.83 493.19 225.41V251.74C493.19 252.317 492.723 252.787 492.143 252.787Z" fill="#FFD03E"/>
<path d="M521.693 260.323C521.523 260.323 521.353 260.283 521.193 260.196C520.686 259.92 520.5 259.286 520.776 258.776L529.61 242.593C529.886 242.086 530.52 241.9 531.026 242.176C531.533 242.453 531.72 243.086 531.443 243.596L522.61 259.78C522.42 260.126 522.063 260.323 521.693 260.323Z" fill="#FFD03E"/>
<path d="M462.6 260.323C462.23 260.323 461.87 260.126 461.68 259.78L452.847 243.596C452.57 243.09 452.757 242.453 453.263 242.176C453.77 241.9 454.403 242.086 454.683 242.593L463.517 258.776C463.793 259.283 463.607 259.92 463.1 260.196C462.94 260.283 462.77 260.323 462.6 260.323Z" fill="#FFD03E"/>
<path d="M585.897 454.763H557.474V459.987H585.897V454.763Z" fill="url(#paint45_linear_268_2366)"/>
<path d="M598.817 447.22H570.396V452.443H598.817V447.22Z" fill="url(#paint46_linear_268_2366)"/>
<path d="M573.314 450.837C573.314 446.733 570.714 446.613 570.714 446.613C570.714 446.613 569.308 446.613 567.018 445.663C564.761 444.727 561.578 445.087 563.358 448.367C563.374 448.407 563.394 448.447 563.418 448.49C563.528 448.663 563.714 448.833 563.994 448.993L569.678 452.33C570.544 452.823 573.294 451.68 573.314 450.837Z" fill="url(#paint47_linear_268_2366)"/>
<path d="M573.298 450.467C573.248 451.307 570.534 452.431 569.678 451.941L563.994 448.607C563.808 448.497 563.481 448.281 563.194 448.021C563.244 448.134 563.291 448.244 563.358 448.364C563.374 448.404 563.394 448.444 563.418 448.487C563.528 448.661 563.714 448.831 563.994 448.991L569.678 452.327C570.488 452.791 572.954 451.814 573.281 450.994C573.294 450.931 573.308 450.871 573.308 450.827C573.314 450.704 573.304 450.591 573.298 450.467Z" fill="#121047"/>
<path d="M572.257 446.074C571.587 446.074 569.231 446.67 569.231 446.67C569.231 446.67 569.217 446.997 569.021 447.284C568.997 447.31 568.977 447.334 568.954 447.364C568.491 447.684 568.017 448.197 569.121 448.89C570.024 449.457 570.757 449.097 571.107 448.75C571.247 448.484 571.457 448.187 571.751 448.02C572.047 447.85 572.234 447.77 572.364 447.764C572.364 447.747 572.371 447.707 572.371 447.707C572.371 447.707 572.537 446.074 572.257 446.074Z" fill="white"/>
<path d="M572.297 405.947C569.727 405.993 563.304 406.11 560.737 406.153C561.694 413.877 563.617 420.893 564.901 428.373C566.281 435.643 567.834 440.753 569.191 446.803C569.687 447.93 571.961 447.503 572.421 446.42C572.781 440.85 573.194 434.06 571.544 427.63C571.821 420.7 572.461 412.943 572.297 405.947Z" fill="#1F196F"/>
<path d="M560.357 458.373C560.357 454.273 557.757 454.153 557.757 454.153C557.757 454.153 556.347 454.153 554.06 453.203C551.804 452.263 548.624 452.63 550.4 455.907C550.417 455.947 550.44 455.987 550.464 456.03C550.574 456.203 550.757 456.373 551.04 456.533L556.724 459.87C557.587 460.363 560.337 459.223 560.357 458.373Z" fill="url(#paint48_linear_268_2366)"/>
<path d="M560.343 458.007C560.293 458.847 557.58 459.97 556.72 459.48L551.036 456.15C550.85 456.04 550.526 455.823 550.236 455.563C550.29 455.677 550.333 455.783 550.396 455.907C550.413 455.947 550.436 455.987 550.46 456.03C550.57 456.203 550.753 456.373 551.036 456.533L556.72 459.87C557.53 460.333 559.996 459.36 560.323 458.54C560.336 458.477 560.346 458.42 560.346 458.37C560.356 458.243 560.35 458.134 560.343 458.007Z" fill="#121047"/>
<path d="M559.3 453.613C558.633 453.613 556.273 454.213 556.273 454.213C556.273 454.213 556.257 454.537 556.063 454.823C556.037 454.85 556.016 454.877 555.996 454.903C555.53 455.227 555.056 455.74 556.163 456.43C557.066 456.997 557.8 456.637 558.15 456.29C558.29 456.027 558.5 455.73 558.79 455.563C559.09 455.39 559.273 455.313 559.407 455.303C559.407 455.287 559.413 455.25 559.413 455.25C559.413 455.25 559.583 453.613 559.3 453.613Z" fill="white"/>
<path d="M564.147 424.31C564.85 420.99 572.95 420.577 572.42 407.523C569.877 407.147 557.053 413.163 554.513 412.79C554.197 420.567 554.947 427.803 554.993 435.39C555.167 442.787 555.867 448.083 556.217 454.273C556.523 455.463 558.833 455.417 559.467 454.42C560.73 448.98 562.247 442.353 561.667 435.737C562.42 432.08 563.32 428.2 564.147 424.31Z" fill="url(#paint49_linear_268_2366)"/>
<path d="M566.554 382.173C575.6 388.22 576.68 400.227 571.787 407.843C571.79 407.843 572.84 390.96 566.554 382.173Z" fill="#7A20DD"/>
<path d="M566.967 414.923C561.46 418.013 555.697 418.02 553.733 414.223C554.467 407.15 555.157 401.393 553.74 394.613C554.157 390.87 554.453 390.31 553.973 388.123C554.143 387.39 556.397 385.827 558.037 384.327C559.81 382.71 561.007 381.17 561.92 380.983C569.45 379.447 573.11 392.867 572.48 407.17C571.9 410.973 569.68 413.403 566.967 414.923Z" fill="url(#paint50_linear_268_2366)"/>
<path d="M566.1 381.84C564.467 380.656 564.597 378.22 564.733 376.596C564.99 375.736 565.107 374.79 565.04 373.796C564.8 370.23 562.317 367.296 559.543 367.676C553.957 368.44 555.153 371.33 555.393 374.896C555.617 378.203 557.273 380.38 559.803 380.59C559.84 381.136 559.617 382.786 558.933 383.473C560.773 384.573 563.453 384.056 564.517 383.576C565.643 383.066 566.863 382.63 566.1 381.84Z" fill="#FCD1A9"/>
<path d="M557.31 365.937C557.444 365.49 558.297 365.197 561.2 366.317C561.217 366.323 561.904 366.593 561.95 366.61C567.324 368.937 566.027 375.133 565.224 376.78C564.94 377.363 564.74 377.83 564.804 378.73C562.69 378.643 562.024 379.83 560.67 378.647C559.697 377.8 558.247 376.803 558.004 376.387C557.76 375.97 557.807 375.697 557.807 375.363C557.8 372.393 556.43 374.207 556.474 374.89C555.91 374.617 555.95 373.423 555.987 372.097C551.42 368.687 553.867 366.34 557.31 365.937Z" fill="#362E93"/>
<path d="M554.39 416.84C555.054 417.58 556.317 417.777 557.12 416.93C558.01 415.99 557.497 414.95 557.987 414.637C559.324 413.78 559.63 412.977 559.404 412.167C558.337 412.844 557.237 413.93 556.304 413.27C555.374 412.61 554.16 411.7 554.094 410.76C552.707 411.077 552.634 414.084 553.357 415.29C554.034 416.424 554.39 416.84 554.39 416.84Z" fill="#FCD1A9"/>
<path d="M556.263 414.477C556.95 416.157 556.467 417.187 554.783 417.377C550.58 415.227 548.137 409.187 548.063 405.873C547.943 400.343 550.627 393.4 554.04 387.957C554.833 386.787 557.387 387.23 558.647 388.893C560.35 391.137 559.62 394.407 558.657 395.737C556.187 399.687 553.433 402.627 553.163 405.79C552.92 408.717 554.113 412.573 556.263 414.477Z" fill="url(#paint51_linear_268_2366)"/>
<defs>
<linearGradient id="paint0_linear_268_2366" x1="814.12" y1="202.321" x2="209.121" y2="443.988" gradientUnits="userSpaceOnUse">
<stop offset="0.2275" stop-color="white"/>
<stop offset="1" stop-color="#EFEFF3"/>
</linearGradient>
<linearGradient id="paint1_linear_268_2366" x1="481.523" y1="331.456" x2="481.523" y2="84.9525" gradientUnits="userSpaceOnUse">
<stop offset="0.4655" stop-color="white"/>
<stop offset="0.8288" stop-color="#DFE4F4"/>
</linearGradient>
<linearGradient id="paint2_linear_268_2366" x1="434.839" y1="331.456" x2="434.839" y2="84.9525" gradientUnits="userSpaceOnUse">
<stop offset="0.4742" stop-color="white"/>
<stop offset="0.8905" stop-color="#E9EDF7"/>
</linearGradient>
<linearGradient id="paint3_linear_268_2366" x1="298.043" y1="312.152" x2="360.577" y2="312.152" gradientUnits="userSpaceOnUse">
<stop stop-color="#CFD5F1"/>
<stop offset="0.00694341" stop-color="#D0D5F1"/>
<stop offset="0.3887" stop-color="#EAECF9"/>
<stop offset="0.7315" stop-color="#F9FAFD"/>
<stop offset="1" stop-color="white"/>
</linearGradient>
<linearGradient id="paint4_linear_268_2366" x1="706.742" y1="287.471" x2="832.062" y2="287.471" gradientUnits="userSpaceOnUse">
<stop stop-color="#CFD5F1"/>
<stop offset="0.2826" stop-color="#E1E5F6"/>
<stop offset="0.7193" stop-color="#F7F8FD"/>
<stop offset="1" stop-color="white"/>
</linearGradient>
<linearGradient id="paint5_linear_268_2366" x1="762.454" y1="300.786" x2="813.145" y2="300.786" gradientUnits="userSpaceOnUse">
<stop stop-color="#CFD5F1"/>
<stop offset="0.2826" stop-color="#E1E5F6"/>
<stop offset="0.7193" stop-color="#F7F8FD"/>
<stop offset="1" stop-color="white"/>
</linearGradient>
<linearGradient id="paint6_linear_268_2366" x1="321.783" y1="377.736" x2="346.161" y2="377.736" gradientUnits="userSpaceOnUse">
<stop stop-color="#CFD5F1"/>
<stop offset="0.2826" stop-color="#E1E5F6"/>
<stop offset="0.7193" stop-color="#F7F8FD"/>
<stop offset="1" stop-color="white"/>
</linearGradient>
<linearGradient id="paint7_linear_268_2366" x1="392.251" y1="568.644" x2="464.366" y2="568.644" gradientUnits="userSpaceOnUse">
<stop stop-color="#CFD5F1"/>
<stop offset="0.2826" stop-color="#E1E5F6"/>
<stop offset="0.7193" stop-color="#F7F8FD"/>
<stop offset="1" stop-color="white"/>
</linearGradient>
<linearGradient id="paint8_linear_268_2366" x1="553.865" y1="603.057" x2="553.865" y2="456.372" gradientUnits="userSpaceOnUse">
<stop stop-color="white"/>
<stop offset="0.0149" stop-color="#FEF7FF"/>
<stop offset="0.1409" stop-color="#F3BAFF"/>
<stop offset="0.2619" stop-color="#E987FF"/>
<stop offset="0.3746" stop-color="#E25FFF"/>
<stop offset="0.4772" stop-color="#DD42FF"/>
<stop offset="0.5664" stop-color="#DA31FF"/>
<stop offset="0.632" stop-color="#D92BFF"/>
</linearGradient>
<linearGradient id="paint9_linear_268_2366" x1="698.764" y1="704.365" x2="698.764" y2="449.265" gradientUnits="userSpaceOnUse">
<stop offset="0.4655" stop-color="white"/>
<stop offset="0.8288" stop-color="#DFE4F4"/>
</linearGradient>
<linearGradient id="paint10_linear_268_2366" x1="633.243" y1="704.365" x2="633.243" y2="449.265" gradientUnits="userSpaceOnUse">
<stop offset="0.4742" stop-color="white"/>
<stop offset="0.8905" stop-color="#E9EDF7"/>
</linearGradient>
<linearGradient id="paint11_linear_268_2366" x1="278.475" y1="689.136" x2="278.475" y2="412.765" gradientUnits="userSpaceOnUse">
<stop offset="0.4655" stop-color="white"/>
<stop offset="0.8288" stop-color="#DFE4F4"/>
</linearGradient>
<linearGradient id="paint12_linear_268_2366" x1="207.491" y1="689.136" x2="207.491" y2="412.765" gradientUnits="userSpaceOnUse">
<stop offset="0.4742" stop-color="white"/>
<stop offset="0.8905" stop-color="#E9EDF7"/>
</linearGradient>
<linearGradient id="paint13_linear_268_2366" x1="349.792" y1="686.667" x2="349.792" y2="506.736" gradientUnits="userSpaceOnUse">
<stop offset="0.4655" stop-color="white"/>
<stop offset="0.8288" stop-color="#DFE4F4"/>
</linearGradient>
<linearGradient id="paint14_linear_268_2366" x1="303.125" y1="686.667" x2="303.125" y2="506.736" gradientUnits="userSpaceOnUse">
<stop offset="0.4742" stop-color="white"/>
<stop offset="0.8905" stop-color="#E9EDF7"/>
</linearGradient>
<linearGradient id="paint15_linear_268_2366" x1="233.034" y1="411.691" x2="275.475" y2="411.691" gradientUnits="userSpaceOnUse">
<stop offset="0.3247" stop-color="#C4C9E4"/>
<stop offset="1" stop-color="white"/>
</linearGradient>
<linearGradient id="paint16_linear_268_2366" x1="224.547" y1="408.047" x2="263.065" y2="408.047" gradientUnits="userSpaceOnUse">
<stop stop-color="#807CFB"/>
<stop offset="0.0138" stop-color="#7F7BFA"/>
<stop offset="0.448" stop-color="#5E5AD1"/>
<stop offset="0.7917" stop-color="#4A46B8"/>
<stop offset="1" stop-color="#423EAF"/>
</linearGradient>
<linearGradient id="paint17_linear_268_2366" x1="224.547" y1="411.724" x2="263.065" y2="411.724" gradientUnits="userSpaceOnUse">
<stop stop-color="#D8DEF0"/>
<stop offset="0.5506" stop-color="#C6CCE7"/>
<stop offset="1" stop-color="#BDC3E3"/>
</linearGradient>
<linearGradient id="paint18_linear_268_2366" x1="224.547" y1="415.4" x2="263.065" y2="415.4" gradientUnits="userSpaceOnUse">
<stop stop-color="#807CFB"/>
<stop offset="0.0138" stop-color="#7F7BFA"/>
<stop offset="0.448" stop-color="#5E5AD1"/>
<stop offset="0.7917" stop-color="#4A46B8"/>
<stop offset="1" stop-color="#423EAF"/>
</linearGradient>
<linearGradient id="paint19_linear_268_2366" x1="672.69" y1="389.092" x2="772.268" y2="389.092" gradientUnits="userSpaceOnUse">
<stop stop-color="#D1D6F0"/>
<stop offset="0.2899" stop-color="#D5DAF1"/>
<stop offset="0.5923" stop-color="#E2E5F5"/>
<stop offset="0.8994" stop-color="#F6F7FC"/>
<stop offset="1" stop-color="white"/>
</linearGradient>
<linearGradient id="paint20_linear_268_2366" x1="696.932" y1="375.14" x2="732.311" y2="375.14" gradientUnits="userSpaceOnUse">
<stop stop-color="#BBBFE2"/>
<stop offset="1" stop-color="#CED2F4"/>
</linearGradient>
<linearGradient id="paint21_linear_268_2366" x1="746.893" y1="394.487" x2="756.794" y2="394.487" gradientUnits="userSpaceOnUse">
<stop stop-color="#A5ACD4"/>
<stop offset="0.6348" stop-color="#BEC3E7"/>
<stop offset="1" stop-color="#CED2F4"/>
</linearGradient>
<linearGradient id="paint22_linear_268_2366" x1="672.69" y1="394.498" x2="682.64" y2="394.498" gradientUnits="userSpaceOnUse">
<stop stop-color="#BBBFE2"/>
<stop offset="1" stop-color="#CED2F4"/>
</linearGradient>
<linearGradient id="paint23_linear_268_2366" x1="730.354" y1="403.672" x2="743.067" y2="403.672" gradientUnits="userSpaceOnUse">
<stop stop-color="#A5ACD4"/>
<stop offset="0.5164" stop-color="#BCC2E6"/>
<stop offset="1" stop-color="#CED2F4"/>
</linearGradient>
<linearGradient id="paint24_linear_268_2366" x1="686.541" y1="403.685" x2="699.277" y2="403.685" gradientUnits="userSpaceOnUse">
<stop stop-color="#BBBFE2"/>
<stop offset="1" stop-color="#CED2F4"/>
</linearGradient>
<linearGradient id="paint25_linear_268_2366" x1="707.935" y1="407.396" x2="721.736" y2="407.396" gradientUnits="userSpaceOnUse">
<stop stop-color="#BBBFE2"/>
<stop offset="1" stop-color="#CED2F4"/>
</linearGradient>
<linearGradient id="paint26_linear_268_2366" x1="689.549" y1="370.318" x2="739.694" y2="370.318" gradientUnits="userSpaceOnUse">
<stop stop-color="#BBBFE2"/>
<stop offset="1" stop-color="#CED2F4"/>
</linearGradient>
<linearGradient id="paint27_linear_268_2366" x1="586.679" y1="344.236" x2="719.294" y2="344.236" gradientUnits="userSpaceOnUse">
<stop stop-color="#C6CBE7"/>
<stop offset="0.1782" stop-color="#DFE1F1"/>
<stop offset="0.3679" stop-color="#F1F2F9"/>
<stop offset="0.5677" stop-color="#FBFCFE"/>
<stop offset="0.7921" stop-color="white"/>
</linearGradient>
<linearGradient id="paint28_linear_268_2366" x1="563.152" y1="332.516" x2="611.76" y2="332.516" gradientUnits="userSpaceOnUse">
<stop stop-color="#5555C6"/>
<stop offset="1" stop-color="#34318F"/>
</linearGradient>
<linearGradient id="paint29_linear_268_2366" x1="561.695" y1="332.576" x2="613.252" y2="332.576" gradientUnits="userSpaceOnUse">
<stop offset="0.0296" stop-color="#7F7FF4"/>
<stop offset="1" stop-color="#4141AA"/>
</linearGradient>
<radialGradient id="paint30_radial_268_2366" cx="0" cy="0" r="1" gradientUnits="userSpaceOnUse" gradientTransform="translate(566.294 261.953) scale(81.762)">
<stop stop-color="#E8ECF7"/>
<stop offset="0.3907" stop-color="#E5E9F6"/>
<stop offset="0.6306" stop-color="#DDE1F3"/>
<stop offset="0.8292" stop-color="#CFD3ED"/>
<stop offset="1" stop-color="#BBC0E6"/>
</radialGradient>
<linearGradient id="paint31_linear_268_2366" x1="561.498" y1="316.032" x2="613.413" y2="316.032" gradientUnits="userSpaceOnUse">
<stop stop-color="white"/>
<stop offset="0.3235" stop-color="#ECEFF9"/>
<stop offset="0.6624" stop-color="#E0E4F5"/>
<stop offset="1" stop-color="#DCE1F4"/>
</linearGradient>
<linearGradient id="paint32_linear_268_2366" x1="597.19" y1="306.894" x2="580.415" y2="277.839" gradientUnits="userSpaceOnUse">
<stop/>
<stop offset="0.0733" stop-color="#1A1B20"/>
<stop offset="0.2046" stop-color="#444654"/>
<stop offset="0.338" stop-color="#696C81"/>
<stop offset="0.4712" stop-color="#868AA5"/>
<stop offset="0.6041" stop-color="#9DA2C2"/>
<stop offset="0.7366" stop-color="#AEB3D6"/>
<stop offset="0.8687" stop-color="#B8BDE2"/>
<stop offset="1" stop-color="#BBC0E6"/>
</linearGradient>
<linearGradient id="paint33_linear_268_2366" x1="397.323" y1="453.561" x2="529.937" y2="453.561" gradientUnits="userSpaceOnUse">
<stop stop-color="#C6CBE7"/>
<stop offset="0.1782" stop-color="#DFE1F1"/>
<stop offset="0.3679" stop-color="#F1F2F9"/>
<stop offset="0.5677" stop-color="#FBFCFE"/>
<stop offset="0.7921" stop-color="white"/>
</linearGradient>
<linearGradient id="paint34_linear_268_2366" x1="373.797" y1="441.841" x2="422.405" y2="441.841" gradientUnits="userSpaceOnUse">
<stop stop-color="#5555C6"/>
<stop offset="1" stop-color="#34318F"/>
</linearGradient>
<linearGradient id="paint35_linear_268_2366" x1="372.339" y1="441.901" x2="423.897" y2="441.901" gradientUnits="userSpaceOnUse">
<stop offset="0.0296" stop-color="#7F7FF4"/>
<stop offset="1" stop-color="#4141AA"/>
</linearGradient>
<radialGradient id="paint36_radial_268_2366" cx="0" cy="0" r="1" gradientUnits="userSpaceOnUse" gradientTransform="translate(376.938 371.277) scale(81.7619)">
<stop stop-color="#E8ECF7"/>
<stop offset="0.3907" stop-color="#E5E9F6"/>
<stop offset="0.6306" stop-color="#DDE1F3"/>
<stop offset="0.8292" stop-color="#CFD3ED"/>
<stop offset="1" stop-color="#BBC0E6"/>
</radialGradient>
<linearGradient id="paint37_linear_268_2366" x1="372.142" y1="425.357" x2="424.058" y2="425.357" gradientUnits="userSpaceOnUse">
<stop stop-color="white"/>
<stop offset="0.3235" stop-color="#ECEFF9"/>
<stop offset="0.6624" stop-color="#E0E4F5"/>
<stop offset="1" stop-color="#DCE1F4"/>
</linearGradient>
<linearGradient id="paint38_linear_268_2366" x1="407.835" y1="416.219" x2="391.06" y2="387.164" gradientUnits="userSpaceOnUse">
<stop/>
<stop offset="0.0733" stop-color="#1A1B20"/>
<stop offset="0.2046" stop-color="#444654"/>
<stop offset="0.338" stop-color="#696C81"/>
<stop offset="0.4712" stop-color="#868AA5"/>
<stop offset="0.6041" stop-color="#9DA2C2"/>
<stop offset="0.7366" stop-color="#AEB3D6"/>
<stop offset="0.8687" stop-color="#B8BDE2"/>
<stop offset="1" stop-color="#BBC0E6"/>
</linearGradient>
<linearGradient id="paint39_linear_268_2366" x1="491.847" y1="397.21" x2="650.78" y2="397.21" gradientUnits="userSpaceOnUse">
<stop stop-color="#C6CBE7"/>
<stop offset="0.1782" stop-color="#DFE1F1"/>
<stop offset="0.3679" stop-color="#F1F2F9"/>
<stop offset="0.5677" stop-color="#FBFCFE"/>
<stop offset="0.7921" stop-color="white"/>
</linearGradient>
<linearGradient id="paint40_linear_268_2366" x1="463.651" y1="383.164" x2="521.906" y2="383.164" gradientUnits="userSpaceOnUse">
<stop stop-color="#5555C6"/>
<stop offset="1" stop-color="#34318F"/>
</linearGradient>
<linearGradient id="paint41_linear_268_2366" x1="461.904" y1="383.236" x2="523.694" y2="383.236" gradientUnits="userSpaceOnUse">
<stop offset="0.0296" stop-color="#7F7FF4"/>
<stop offset="1" stop-color="#4141AA"/>
</linearGradient>
<radialGradient id="paint42_radial_268_2366" cx="0" cy="0" r="1" gradientUnits="userSpaceOnUse" gradientTransform="translate(467.416 298.596) scale(97.9886)">
<stop stop-color="#FFAD02"/>
<stop offset="0.3058" stop-color="#FFAA03"/>
<stop offset="0.4936" stop-color="#FDA204"/>
<stop offset="0.6496" stop-color="#FB9307"/>
<stop offset="0.7881" stop-color="#F77F0C"/>
<stop offset="0.9139" stop-color="#F36511"/>
<stop offset="1" stop-color="#EF4E16"/>
</radialGradient>
<linearGradient id="paint43_linear_268_2366" x1="461.67" y1="363.409" x2="523.888" y2="363.409" gradientUnits="userSpaceOnUse">
<stop stop-color="white"/>
<stop offset="0.3235" stop-color="#ECEFF9"/>
<stop offset="0.6624" stop-color="#E0E4F5"/>
<stop offset="1" stop-color="#DCE1F4"/>
</linearGradient>
<linearGradient id="paint44_linear_268_2366" x1="504.445" y1="352.457" x2="484.341" y2="317.636" gradientUnits="userSpaceOnUse">
<stop/>
<stop offset="0.1199" stop-color="#392700"/>
<stop offset="0.2445" stop-color="#6D4A01"/>
<stop offset="0.3713" stop-color="#9A6801"/>
<stop offset="0.4978" stop-color="#BE8101"/>
<stop offset="0.624" stop-color="#DB9402"/>
<stop offset="0.7499" stop-color="#EFA202"/>
<stop offset="0.8753" stop-color="#FBAA02"/>
<stop offset="1" stop-color="#FFAD02"/>
</linearGradient>
<linearGradient id="paint45_linear_268_2366" x1="557.475" y1="457.375" x2="585.898" y2="457.375" gradientUnits="userSpaceOnUse">
<stop stop-color="#C4CAE8"/>
<stop offset="0.0949" stop-color="#CED3EC"/>
<stop offset="0.4088" stop-color="#E9EBF6"/>
<stop offset="0.6869" stop-color="#F9FAFD"/>
<stop offset="0.8989" stop-color="white"/>
</linearGradient>
<linearGradient id="paint46_linear_268_2366" x1="570.397" y1="449.83" x2="598.819" y2="449.83" gradientUnits="userSpaceOnUse">
<stop stop-color="#C4CAE8"/>
<stop offset="0.0949" stop-color="#CED3EC"/>
<stop offset="0.4088" stop-color="#E9EBF6"/>
<stop offset="0.6869" stop-color="#F9FAFD"/>
<stop offset="0.8989" stop-color="white"/>
</linearGradient>
<linearGradient id="paint47_linear_268_2366" x1="562.837" y1="448.831" x2="573.314" y2="448.831" gradientUnits="userSpaceOnUse">
<stop stop-color="#423EAF"/>
<stop offset="0.3038" stop-color="#3A35A0"/>
<stop offset="0.8906" stop-color="#241E77"/>
<stop offset="1" stop-color="#1F196F"/>
</linearGradient>
<linearGradient id="paint48_linear_268_2366" x1="549.881" y1="456.372" x2="560.358" y2="456.372" gradientUnits="userSpaceOnUse">
<stop stop-color="#423EAF"/>
<stop offset="0.3038" stop-color="#3A35A0"/>
<stop offset="0.8906" stop-color="#241E77"/>
<stop offset="1" stop-color="#1F196F"/>
</linearGradient>
<linearGradient id="paint49_linear_268_2366" x1="554.432" y1="431.339" x2="572.443" y2="431.339" gradientUnits="userSpaceOnUse">
<stop stop-color="#423EAF"/>
<stop offset="0.3013" stop-color="#353097"/>
<stop offset="0.7465" stop-color="#251F7A"/>
<stop offset="1" stop-color="#1F196F"/>
</linearGradient>
<linearGradient id="paint50_linear_268_2366" x1="553.736" y1="399.014" x2="572.55" y2="399.014" gradientUnits="userSpaceOnUse">
<stop stop-color="#A917FF"/>
<stop offset="1" stop-color="#9B20EF"/>
</linearGradient>
<linearGradient id="paint51_linear_268_2366" x1="545.578" y1="405.683" x2="562.284" y2="399.807" gradientUnits="userSpaceOnUse">
<stop stop-color="#A917FF"/>
<stop offset="1" stop-color="#C423FC"/>
</linearGradient>
</defs>
</svg>
